<!-- html.svg -->
<svg width="24" height="24" viewBox="0 0 24 24" fill="none" xmlns="http://www.w3.org/2000/svg">
  <path d="M2.25 0.75H21.75C22.4384 0.75 23.0368 1.24846 23.2994 1.86261L23.7704 3.18907L22.5647 21.5844C22.3716 22.3593 21.7317 23 20.9563 23H20.9547L12 20.9L3.04531 23H3.04372C2.26825 23 1.62841 22.3593 1.43531 21.5844L0.22963 3.18907L0.700608 1.86261C0.963199 1.24846 1.5616 0.75 2.25 0.75Z" fill="#E44D26"/>
  <path d="M12 15.5418L16.2 16.0495L15.8939 13.9058L12 13.2135L8.10612 13.9058L7.8 16.0495L12 15.5418Z" fill="white"/>
  <path d="M8.16534 12.1432L12 11.6178L15.8347 12.1432L15.5735 15.1044L12 14.7027L8.42648 15.1044L8.16534 12.1432Z" fill="#F16529"/>
</svg>
