<!-- react.svg -->
<svg width="24" height="24" viewBox="0 0 24 24" fill="none" xmlns="http://www.w3.org/2000/svg">
  <path d="M12 7.5C8.693 7.5 5.849 10.414 5.221 13.623C5.473 13.665 5.723 13.728 5.975 13.774C6.209 10.911 8.832 8.5 12 8.5C15.168 8.5 17.791 10.911 18.025 13.774C18.277 13.728 18.527 13.665 18.779 13.623C18.151 10.414 15.307 7.5 12 7.5ZM12 6C14.142 6 16.279 7.301 17.303 9.401C17.725 9.128 18.204 8.961 18.704 8.886C18.839 8.663 18.982 8.436 19.118 8.207C18.233 5.964 15.378 4.5 12 4.5C8.623 4.5 5.77 5.964 4.886 8.207C5.022 8.436 5.165 8.663 5.3 8.886C5.799 8.961 6.279 9.128 6.701 9.401C7.724 7.301 9.861 6 12 6ZM11.997 20.5C15.183 20.5 17.986 18.701 19.038 16.186C18.045 16.858 16.869 17.281 15.706 17.43C15.485 17.638 15.245 17.86 14.981 18.072C14.316 20.137 13.316 21.795 12 21.795C10.683 21.795 9.68302 20.137 9.01802 18.072C8.75402 17.86 8.51402 17.638 8.29302 17.43C7.12902 17.281 5.95402 16.858 4.96102 16.186C6.01302 18.701 8.81602 20.5 11.997 20.5ZM20.588 14.645C20.287 14.586 19.989 14.515 19.694 14.441C19.449 16.596 17.895 18.517 15.706 19.574C16.658 18.091 17.331 16.283 17.591 14.645C18.454 14.628 19.317 14.623 20.179 14.637C20.626 14.641 20.666 14.636 20.588 14.645Z" fill="#61DAFB"/>
</svg>
